<svg width="178" height="36" viewBox="0 0 178 36" fill="none" xmlns="http://www.w3.org/2000/svg">
<path d="M16.513 35.427C13.181 35.427 10.2573 34.7083 7.742 33.271C5.25933 31.8337 3.34833 29.7757 2.009 27.097C0.669667 24.4183 0 21.2823 0 17.689C0 14.0957 0.669667 10.976 2.009 8.33C3.34833 5.65133 5.25933 3.59333 7.742 2.156C10.2573 0.718667 13.181 0 16.513 0C18.669 0 20.6943 0.326667 22.589 0.980002C24.4837 1.60067 26.166 2.51534 27.636 3.724C28.0607 4.05067 28.3547 4.39367 28.518 4.753C28.6813 5.11233 28.763 5.55333 28.763 6.076C28.763 6.79467 28.567 7.399 28.175 7.889C27.783 8.379 27.3093 8.624 26.754 8.624C26.1007 8.624 25.431 8.39533 24.745 7.938C23.3403 6.89267 22.0337 6.174 20.825 5.782C19.6163 5.35733 18.277 5.145 16.807 5.145C13.4097 5.145 10.829 6.20667 9.065 8.33C7.33367 10.4533 6.468 13.573 6.468 17.689C6.468 21.8377 7.33367 24.9737 9.065 27.097C10.829 29.2203 13.4097 30.282 16.807 30.282C18.2117 30.282 19.502 30.0697 20.678 29.645C21.8867 29.2203 23.2423 28.5017 24.745 27.489C25.0717 27.293 25.3983 27.1297 25.725 26.999C26.0517 26.8683 26.3947 26.803 26.754 26.803C27.3093 26.803 27.783 27.048 28.175 27.538C28.567 28.028 28.763 28.6323 28.763 29.351C28.763 29.841 28.6813 30.282 28.518 30.674C28.3547 31.0333 28.0607 31.3763 27.636 31.703C26.166 32.9117 24.4837 33.8427 22.589 34.496C20.6943 35.1167 18.669 35.427 16.513 35.427Z" fill="#1A73E8"/>
<path d="M43.6575 10.437C46.9895 10.437 49.4558 11.27 51.0565 12.936C52.6898 14.5693 53.5065 17.0683 53.5065 20.433V32.389C53.5065 33.271 53.2451 33.9733 52.7225 34.496C52.1998 34.986 51.4811 35.231 50.5665 35.231C49.7171 35.231 49.0148 34.9697 48.4595 34.447C47.9368 33.9243 47.6755 33.2383 47.6755 32.389V31.311C47.1201 32.585 46.2381 33.5813 45.0295 34.3C43.8535 35.0187 42.4815 35.378 40.9135 35.378C39.3128 35.378 37.8591 35.0513 36.5525 34.398C35.2458 33.7447 34.2168 32.8463 33.4655 31.703C32.7141 30.5597 32.3385 29.2857 32.3385 27.881C32.3385 26.117 32.7795 24.7287 33.6615 23.716C34.5761 22.7033 36.0461 21.9683 38.0715 21.511C40.0968 21.0537 42.8898 20.825 46.4505 20.825H47.6755V19.698C47.6755 18.0973 47.3325 16.9377 46.6465 16.219C45.9605 15.4677 44.8498 15.092 43.3145 15.092C42.3671 15.092 41.4035 15.239 40.4235 15.533C39.4435 15.7943 38.2838 16.1863 36.9445 16.709C36.0951 17.1337 35.4745 17.346 35.0825 17.346C34.4945 17.346 34.0045 17.1337 33.6125 16.709C33.2531 16.2843 33.0735 15.729 33.0735 15.043C33.0735 14.4877 33.2041 14.014 33.4655 13.622C33.7595 13.1973 34.2331 12.8053 34.8865 12.446C36.0298 11.8253 37.3855 11.3353 38.9535 10.976C40.5541 10.6167 42.1221 10.437 43.6575 10.437ZM42.1385 30.968C43.7718 30.968 45.0948 30.429 46.1075 29.351C47.1528 28.2403 47.6755 26.8193 47.6755 25.088V24.059H46.7935C44.6048 24.059 42.9061 24.157 41.6975 24.353C40.4888 24.549 39.6231 24.892 39.1005 25.382C38.5778 25.872 38.3165 26.5417 38.3165 27.391C38.3165 28.4363 38.6758 29.302 39.3945 29.988C40.1458 30.6413 41.0605 30.968 42.1385 30.968Z" fill="#1A73E8"/>
<path d="M73.1084 10.535C73.9577 10.4697 74.6274 10.6493 75.1174 11.074C75.6074 11.4987 75.8524 12.1357 75.8524 12.985C75.8524 13.867 75.6401 14.5203 75.2154 14.945C74.7907 15.3697 74.023 15.6473 72.9124 15.778L71.4424 15.925C69.515 16.121 68.094 16.7743 67.1794 17.885C66.2974 18.9957 65.8564 20.384 65.8564 22.05V32.34C65.8564 33.2873 65.5624 34.0223 64.9744 34.545C64.3864 35.035 63.6514 35.28 62.7694 35.28C61.8874 35.28 61.1524 35.035 60.5644 34.545C60.0091 34.0223 59.7314 33.2873 59.7314 32.34V13.377C59.7314 12.4623 60.0091 11.76 60.5644 11.27C61.1524 10.78 61.871 10.535 62.7204 10.535C63.5697 10.535 64.2557 10.78 64.7784 11.27C65.301 11.7273 65.5624 12.397 65.5624 13.279V15.239C66.1831 13.8017 67.0977 12.691 68.3064 11.907C69.5477 11.123 70.9197 10.682 72.4224 10.584L73.1084 10.535Z" fill="#1A73E8"/>
<path d="M82.1642 35.28C81.2169 35.28 80.4492 35.0023 79.8612 34.447C79.3059 33.859 79.0282 33.075 79.0282 32.095V3.43C79.0282 2.48267 79.2895 1.74767 79.8122 1.225C80.3675 0.702334 81.1189 0.441 82.0662 0.441H94.1202C97.8115 0.441 100.686 1.372 102.744 3.234C104.802 5.06334 105.831 7.644 105.831 10.976C105.831 14.308 104.802 16.905 102.744 18.767C100.686 20.629 97.8115 21.56 94.1202 21.56H85.3492V32.095C85.3492 33.075 85.0552 33.859 84.4672 34.447C83.9119 35.0023 83.1442 35.28 82.1642 35.28ZM93.3362 16.709C97.6809 16.709 99.8532 14.8143 99.8532 11.025C99.8532 7.23567 97.6809 5.341 93.3362 5.341H85.3492V16.709H93.3362Z" fill="#1A73E8"/>
<path d="M150.054 10.535C150.903 10.4697 151.573 10.6493 152.063 11.074C152.553 11.4987 152.798 12.1357 152.798 12.985C152.798 13.867 152.585 14.5203 152.161 14.945C151.736 15.3697 150.968 15.6473 149.858 15.778L148.388 15.925C146.46 16.121 145.039 16.7743 144.125 17.885C143.243 18.9957 142.802 20.384 142.802 22.05V32.34C142.802 33.2873 142.508 34.0223 141.92 34.545C141.332 35.035 140.597 35.28 139.715 35.28C138.833 35.28 138.098 35.035 137.51 34.545C136.954 34.0223 136.677 33.2873 136.677 32.34V13.377C136.677 12.4623 136.954 11.76 137.51 11.27C138.098 10.78 138.816 10.535 139.666 10.535C140.515 10.535 141.201 10.78 141.724 11.27C142.246 11.7273 142.508 12.397 142.508 13.279V15.239C143.128 13.8017 144.043 12.691 145.252 11.907C146.493 11.123 147.865 10.682 149.368 10.584L150.054 10.535Z" fill="#1A73E8"/>
<path d="M176.75 30.233C177.403 30.8537 177.73 31.556 177.73 32.34C177.73 33.0913 177.452 33.761 176.897 34.349C176.374 34.937 175.753 35.231 175.035 35.231C174.316 35.231 173.646 34.937 173.026 34.349L161.56 23.961V32.34C161.56 33.2873 161.266 34.006 160.678 34.496C160.09 34.986 159.355 35.231 158.473 35.231C157.59 35.231 156.855 34.986 156.268 34.496C155.712 34.006 155.435 33.2873 155.435 32.34V3.087C155.435 2.13967 155.712 1.421 156.268 0.931C156.855 0.441 157.59 0.196 158.473 0.196C159.355 0.196 160.09 0.441 160.678 0.931C161.266 1.421 161.56 2.13967 161.56 3.087V21.511L172.046 11.466C172.633 10.878 173.303 10.584 174.055 10.584C174.806 10.584 175.459 10.8617 176.015 11.417C176.57 11.9723 176.848 12.6257 176.848 13.377C176.848 14.1283 176.537 14.8143 175.917 15.435L168.224 22.589L176.75 30.233Z" fill="#1A73E8"/>
<path fill-rule="evenodd" clip-rule="evenodd" d="M120.437 8.85729C116.733 8.85729 113.731 11.9425 113.731 15.7484C113.731 17.9653 114.748 19.9375 116.335 21.2004L116.485 21.32L116.599 21.4766C118.112 23.5598 119.725 26.2548 120.395 29.9203C120.822 27.5932 121.893 24.9374 124.325 21.4462L124.44 21.2816L124.594 21.156C126.149 19.8915 127.143 17.9396 127.143 15.7484C127.143 11.9425 124.141 8.85729 120.437 8.85729ZM110.937 15.7484C110.937 10.3568 115.19 5.986 120.437 5.986C125.684 5.986 129.937 10.3568 129.937 15.7484C129.937 18.778 128.593 21.4857 126.488 23.2742C123.54 27.5518 122.999 30.1754 122.945 32.4199C122.912 33.7796 121.853 34.986 120.42 34.986C119.019 34.986 117.969 33.8305 117.893 32.5041C117.66 28.4399 116.088 25.6013 114.468 23.3431C112.316 21.5556 110.937 18.8172 110.937 15.7484Z" fill="#FFC408"/>
<circle cx="120.437" cy="15.486" r="3.5" fill="#FFC408"/>
</svg>
